<svg data-v-0dd9719b="" version="1.0" xmlns="http://www.w3.org/2000/svg" xmlns:xlink="http://www.w3.org/1999/xlink" width="100%" height="100%" viewBox="0 0 340.000000 250.000000" preserveAspectRatio="xMidYMid meet" color-interpolation-filters="sRGB" style="margin: auto;"> <rect data-v-0dd9719b="" x="0" y="0" width="100%" height="100%" fill="#fff" fill-opacity="1" class="background"></rect> <rect data-v-0dd9719b="" x="0" y="0" width="100%" height="100%" fill="url(#watermark)" fill-opacity="1" class="watermarklayer"></rect> <g data-v-0dd9719b="" fill="#333" class="icon-text-wrapper icon-svg-group iconsvg" transform="translate(49.28999328613281,95.03805160522461)"><g class="iconsvg-imagesvg" transform="translate(0,0)"><g><rect fill="#333" fill-opacity="0" stroke-width="2" x="0" y="0" width="60" height="59.9238966512529" class="image-rect"></rect> <svg x="0" y="0" width="60" height="59.9238966512529" filtersec="colorsb771091759" class="image-svg-svg primary" style="overflow: visible;"><svg xmlns="http://www.w3.org/2000/svg" viewBox="-0.013412523083388805 0 100.12681579589844 100"><g fill-rule="evenodd"><path d="M50.05 64.56a33.61 33.61 0 0 1-33.61-33.62 2.25 2.25 0 0 1 4.5 0 29.11 29.11 0 0 0 29.11 29.12 9 9 0 1 1 0 18 2.25 2.25 0 1 1 0-4.49 4.5 4.5 0 0 0 3.19-1.33 4.51 4.51 0 0 0-3.19-7.69zm0-12.31a21.31 21.31 0 0 1-2.25-42.5V0a50.05 50.05 0 0 0 0 100v-9.74a21.27 21.27 0 0 1-13.54-6.9 2.24 2.24 0 1 1 3.32-3 17 17 0 0 0 5.66 4.1 16.82 16.82 0 1 0 6.81-32.2z" fill="#0d72ff"></path><path d="M50.05 35.45a33.63 33.63 0 0 1 33.62 33.62 2.25 2.25 0 0 1-4.5 0A29.12 29.12 0 0 0 50.05 40a9 9 0 0 1 0-18 2.25 2.25 0 0 1 0 4.5 4.51 4.51 0 1 0 0 9zm0 12.3a21.32 21.32 0 0 1 2.25 42.51V100a50.05 50.05 0 0 0 0-100v9.75a21.36 21.36 0 0 1 13.55 6.89 2.24 2.24 0 0 1-3.33 3 16.82 16.82 0 1 0-12.47 28.1z" fill="#0daeff"></path></g></svg></svg> <!----></g></g> <g transform="translate(67,2.7757015228271484)"><g data-gra="path-name" fill-rule="" class="tp-name iconsvg-namesvg" transform="translate(0,0)"><g transform="scale(1)"><g><path d="M12.42-28.93L11.03-16.7Q10.35-10.84 9.36-5.94L9.36-5.94Q8.1-0.04 6.21 3.55L6.21 3.55 1.93 2.34Q4.05-1.84 5.22-6.71L5.22-6.71Q6.12-10.62 6.93-17.46L6.93-17.46 8.14-28.98Q8.37-30.91 9.25-31.81 10.13-32.71 11.92-32.71L11.92-32.71 24.16-32.71 23.18-35.87 27.9-35.87 29.02-32.71 42.21-32.71 41.76-28.93 12.42-28.93ZM24.7-26.28L24.93-28.21 28.98-28.21 28.71-26.28 35.95-26.28Q37.39-26.28 38.18-25.54 38.97-24.79 38.97-23.36L38.97-23.36Q38.97-22.81 38.92-22.54L38.92-22.54 38.66-20.52 41.71-20.52 41.31-17.23 38.3-17.23 37.57-11.25 26.86-11.25 26.55-8.69 34.52-8.69Q37.71-8.69 37.71-5.71L37.71-5.71Q37.71-5.22 37.66-4.95L37.66-4.95 36.67 2.75 12.06 2.75 13.23-5.89Q13.59-8.69 16.47-8.69L16.47-8.69 22.54-8.69 22.86-11.25 13.9-11.25 14.31-14.58 23.27-14.58 23.58-17.23 12.33-17.23 12.78-20.52 23.98-20.52 24.3-22.95 14.63-22.95 15.07-26.28 24.7-26.28ZM28.04-20.52L34.74-20.52 35.05-22.95 28.3-22.95 28.04-20.52ZM34.38-17.23L27.63-17.23 27.27-14.58 34.06-14.58 34.38-17.23ZM33.03-0.85L33.66-5.35 17.14-5.35 16.61-0.85 33.03-0.85ZM67.14-34.88L71.78-34.88 68.53-2.25 78.03-2.25 80.73-27.36 85.23-27.36 82.08 1.98 53.55 1.98Q52.29 1.98 51.57 1.8 50.85 1.62 50.49 1.21L50.49 1.21Q49.99 0.72 49.99-0.54L49.99-0.54Q49.99-0.85 50.09-1.75L50.09-1.75 53.1-27.27 57.55-27.18 54.63-2.25 63.95-2.25 67.14-34.88ZM112.59-30.46L112.14-26.82 106.69-26.82 106.06-21.82 112.41-21.82 112.28-20.61Q116.59-24.7 118.48-30.33L118.48-30.33 114.16-30.33 114.61-34.11 128.61-34.11Q130.55-34.11 131.22-33.3 131.89-32.49 131.72-30.46L131.72-30.46 131.26-25.92Q131.13-24.79 130.5-21.51L130.5-21.51Q129.82-18.72 127.39-18.72L127.39-18.72Q126.09-18.72 124.4-19.08 122.72-19.44 121.45-19.89L121.45-19.89 122-23.49Q122.72-23.18 124.11-22.86L124.11-22.86Q125.19-22.59 125.82-22.59L125.82-22.59Q126.31-22.59 126.54-22.79 126.77-22.99 126.9-23.49L126.9-23.49 127.17-24.93Q127.22-25.43 127.39-26.82L127.39-26.82Q127.57-28.21 127.62-28.75L127.62-28.75Q127.62-28.62 127.8-30.33L127.8-30.33 122.44-30.33Q121.32-26.46 119.7-23.63L119.7-23.63Q117.9-20.47 115.88-18.5L115.88-18.5 112.23-20.52 111.96-18.09 107.41-18.09 106.78-12.96 111.19-12.96 110.75-9.36 106.38-9.36 105.53-2.52Q108.63-1.08 112.14-1.08L112.14-1.08 131.44-1.08 130.14 2.75 110.75 2.75Q106.61 2.75 102.87 0.72L102.87 0.72Q99.86-0.9 97.88-3.38L97.88-3.38Q96.7 0.45 95.36 3.24L95.36 3.24 91.44 2.07Q93.6-1.89 94.81-6.52L94.81-6.52Q95.85-10.35 96.48-15.84L96.48-15.84 100.44-15.84Q99.86-11.79 99.09-8.1L99.09-8.1Q100.22-6.34 101.75-5L101.75-5 103.45-18.09 94.55-18.09 95-21.82 102.02-21.82 102.64-26.82 96.57-26.82 97.02-30.46 103.05-30.46 103.68-35.46 107.73-35.46 107.1-30.46 112.59-30.46ZM130.23-13.28L129.1-3.73 111.78-3.73 112.91-13.23Q113.17-15.3 114.21-16.31 115.25-17.32 117.13-17.32L117.13-17.32 126.85-17.32Q128.52-17.32 129.4-16.49 130.28-15.66 130.28-14.08L130.28-14.08Q130.28-13.54 130.23-13.28L130.23-13.28ZM117.18-13.54L116.55-7.51 125.19-7.51 125.95-13.54 117.18-13.54ZM155.61-2.75Q154.4-2.75 152.89-3.1 151.38-3.46 150.16-3.96L150.16-3.96 150.62-8.01Q151.83-7.56 154.03-7.02L154.03-7.02Q154.17-6.97 154.4-6.97L154.4-6.97Q154.57-6.97 154.66-7.13 154.75-7.29 154.84-7.74L154.84-7.74 157-25.52 165.1-30.02 145.98-30.02 146.43-33.98 169.69-33.98Q171-33.98 171.76-33.3 172.53-32.63 172.53-31.68L172.53-31.68Q172.53-30.11 171.05-29.2L171.05-29.2 161.1-23.31 158.9-5.98Q158.67-4.32 157.88-3.53 157.09-2.75 155.61-2.75L155.61-2.75ZM138.82-1.35L141.79-25.29 146.29-25.29 143.37-1.4 168.84-1.4 171.81-25.11 176.35-25.11 172.98 2.75 142.51 2.75Q140.13 2.75 139.37 1.8L139.37 1.8Q138.74 1.03 138.74-0.27L138.74-0.27Q138.74-0.54 138.82-1.35L138.82-1.35ZM154.89-21.51L154.44-17.32 147.33-21.2 147.82-25.2 154.89-21.51ZM161.73-17.14L162.27-21.29 170.32-24.7 169.78-20.34 161.73-17.14ZM154.4-15.75L153.81-11.29Q150.62-9.54 145.35-7.15L145.35-7.15 145.8-11.43Q146.97-12.01 147.69-12.33L147.69-12.33Q148.91-12.87 149.94-13.41L149.94-13.41 152.24-14.58Q154.03-15.52 154.4-15.75L154.4-15.75ZM161.01-11.29L161.5-15.48Q164.2-13.68 168.8-10.35L168.8-10.35 168.25-5.8 166.45-7.2Q162.72-10.13 161.01-11.29L161.01-11.29Z" transform="translate(-1.9300000667572021, 35.869998931884766)"></path></g> <!----> <!----> <!----> <!----> <!----> <!----> <!----></g></g> <g data-gra="path-slogan" fill-rule="" class="tp-slogan iconsvg-slogansvg" fill="#333" transform="translate(5,45.41999816894531)"><rect x="0" height="1" y="3.9750003814697266" width="15.015007019042969"></rect> <rect height="1" y="3.9750003814697266" width="15.015007019042969" x="149.4050064086914"></rect> <g transform="translate(18.01500701904297,0)"><g transform="scale(1)"><path d="M3.09-7.59L0.19-7.59L0.19-8.58L7.13-8.58L7.13-7.59L4.22-7.59L4.22 0L3.09 0L3.09-7.59ZM13.83 0L12.98-2.48L9.52-2.48L8.63 0L7.45 0L10.69-8.58L12-8.58L15.09 0L13.83 0ZM11.25-7.31L9.89-3.52L12.56-3.52L11.30-7.31L11.25-7.31ZM17.53-8.58L21.84-1.64L21.84-8.58L22.97-8.58L22.97 0L21.66 0L17.30-6.94L17.25-6.94L17.25 0L16.13 0L16.13-8.58L17.53-8.58ZM31.17-3.61L28.55-3.61L28.55-4.59L32.30-4.59L32.30 0L31.55 0L31.27-1.08Q30.28 0.09 28.45 0.14L28.45 0.14Q26.72 0.14 25.78-0.75L25.78-0.75Q24.38-2.06 24.42-4.36L24.42-4.36Q24.75-8.63 28.50-8.81L28.50-8.81Q31.69-8.63 32.16-6L32.16-6L31.03-6Q30.56-7.78 28.45-7.83L28.45-7.83Q25.78-7.64 25.64-4.31L25.64-4.31Q25.64-0.75 28.50-0.75L28.50-0.75Q29.53-0.75 30.28-1.31L30.28-1.31Q31.22-2.06 31.17-3.61L31.17-3.61ZM40.36-6.09L40.36-6.09L39.28-6.09Q39.19-7.73 37.13-7.83L37.13-7.83Q35.20-7.78 35.20-6.33L35.20-6.33Q35.20-5.39 36.23-5.25L36.23-5.25L38.67-4.69Q40.59-4.22 40.59-2.34L40.59-2.34Q40.55 0.05 37.22 0.14L37.22 0.14Q35.39 0.14 34.64-0.61L34.64-0.61Q33.70-1.31 33.75-2.77L33.75-2.77L34.88-2.77Q34.92-0.80 37.22-0.75L37.22-0.75Q39.47-0.80 39.52-2.20L39.52-2.20Q39.70-3.38 37.64-3.75L37.64-3.75L35.86-4.13Q34.03-4.64 34.03-6.19L34.03-6.19Q34.17-8.72 37.03-8.81L37.03-8.81Q40.27-8.81 40.36-6.09ZM43.22-5.06L47.72-5.06L47.72-8.58L48.89-8.58L48.89 0L47.72 0L47.72-3.98L43.22-3.98L43.22 0L42.05 0L42.05-8.58L43.22-8.58L43.22-5.06ZM56.34 0L55.50-2.48L52.03-2.48L51.14 0L49.97 0L53.20-8.58L54.52-8.58L57.61 0L56.34 0ZM53.77-7.31L52.41-3.52L55.08-3.52L53.81-7.31L53.77-7.31ZM60.05-8.58L64.36-1.64L64.36-8.58L65.48-8.58L65.48 0L64.17 0L59.81-6.94L59.77-6.94L59.77 0L58.64 0L58.64-8.58L60.05-8.58ZM77.77-6.05L77.77-6.05L76.64-6.05Q76.22-7.78 74.25-7.83L74.25-7.83Q71.53-7.69 71.44-4.36L71.44-4.36Q71.44-0.80 74.30-0.80L74.30-0.80Q76.27-0.84 76.73-3.19L76.73-3.19L77.86-3.19Q77.34 0.05 74.06 0.14L74.06 0.14Q70.31 0 70.22-4.31L70.22-4.31Q70.41-8.63 74.25-8.81L74.25-8.81Q77.30-8.72 77.77-6.05ZM80.39-5.06L84.89-5.06L84.89-8.58L86.06-8.58L86.06 0L84.89 0L84.89-3.98L80.39-3.98L80.39 0L79.22 0L79.22-8.58L80.39-8.58L80.39-5.06ZM93.52 0L92.67-2.48L89.20-2.48L88.31 0L87.14 0L90.38-8.58L91.69-8.58L94.78 0L93.52 0ZM90.94-7.31L89.58-3.52L92.25-3.52L90.98-7.31L90.94-7.31ZM102.61-4.27L102.61-4.27Q102.42-7.64 99.61-7.83L99.61-7.83Q96.75-7.69 96.61-4.27L96.61-4.27Q96.75-0.94 99.61-0.80L99.61-0.80Q102.42-0.98 102.61-4.27ZM103.78-4.27L103.78-4.27Q103.50 0 99.61 0.14L99.61 0.14Q95.67 0 95.39-4.27L95.39-4.27Q95.63-8.72 99.61-8.81L99.61-8.81Q103.50-8.67 103.78-4.27ZM106.31-5.06L110.81-5.06L110.81-8.58L111.98-8.58L111.98 0L110.81 0L110.81-3.98L106.31-3.98L106.31 0L105.14 0L105.14-8.58L106.31-8.58L106.31-5.06ZM119.44 0L118.59-2.48L115.13-2.48L114.23 0L113.06 0L116.30-8.58L117.61-8.58L120.70 0L119.44 0ZM116.86-7.31L115.50-3.52L118.17-3.52L116.91-7.31L116.86-7.31ZM123.14-8.58L127.45-1.64L127.45-8.58L128.58-8.58L128.58 0L127.27 0L122.91-6.94L122.86-6.94L122.86 0L121.73 0L121.73-8.58L123.14-8.58Z" transform="translate(-0.1875, 8.8125)"></path></g></g></g></g></g><defs v-gra="od"></defs></svg>